Coordinates
version=1
nRows=30
nColumns=38
inDegrees=no

Units are S.I. units (second, meters, Newtons, ...)
If the header above contains a line with 'inDegrees', this indicates whether rotational values are in degrees (yes) or radians (no).

endheader
time	pelvis_tilt	pelvis_list	pelvis_rotation	pelvis_tx	pelvis_ty	pelvis_tz	hip_flexion_r	hip_adduction_r	hip_rotation_r	knee_angle_r	ankle_angle_r	subtalar_angle_r	mtp_angle_r	hip_flexion_l	hip_adduction_l	hip_rotation_l	knee_angle_l	ankle_angle_l	subtalar_angle_l	mtp_angle_l	lumbar_extension	lumbar_bending	lumbar_rotation	arm_flex_r	arm_add_r	arm_rot_r	elbow_flex_r	pro_sup_r	wrist_flex_r	wrist_dev_r	arm_flex_l	arm_add_l	arm_rot_l	elbow_flex_l	pro_sup_l	wrist_flex_l	wrist_dev_l
0	-1.3659	1.52613	-0.0986904	0.771058	2.04563	0.908661	0.376351	-0.00526456	-0.368507	0.466381	0.0875859	0	0	0.0185916	-0.245663	-0.177614	0.96469	-0.165968	0	0	-0.145469	0.11029	-0.151302	-0.0515634	-0.31996	0.466656	0.635962	1.22503	0	0	-0.0816989	-0.355474	0.379141	0.761961	0.945553	0	0
0.01	-1.56413	1.51853	0.0976941	0.769733	2.03625	0.908165	0.376962	0.00532738	-0.369011	0.469595	0.0978737	0	0	0.0810149	-0.274262	-0.177332	1.07015	-0.14752	0	0	-0.133831	0.120037	-0.147079	-0.0518937	-0.331189	0.470707	0.653749	1.22537	0	0	-0.0897707	-0.349482	0.385831	0.760588	0.957412	0	0
0.02	-1.5265	1.51937	0.0541069	0.767842	2.02654	0.909572	0.363279	0.00965711	-0.364957	0.469249	0.106969	0	0	0.108333	-0.2762	-0.167186	1.10867	-0.177401	0	0	-0.13604	0.119327	-0.138265	-0.0507651	-0.337146	0.469107	0.666018	1.23699	0	0	-0.0947939	-0.345537	0.394086	0.757719	0.966975	0	0
0.03	-1.44843	1.52024	-0.0292702	0.765845	2.01669	0.911264	0.345231	0.0148601	-0.361047	0.464621	0.114662	0	0	0.131256	-0.277588	-0.158237	1.14263	-0.186753	0	0	-0.140377	0.117896	-0.130081	-0.0495589	-0.341365	0.465073	0.677094	1.25114	0	0	-0.100554	-0.3421	0.3999	0.756742	0.976272	0	0
0.04	-1.34628	1.5209	-0.135667	0.763882	2.00687	0.913155	0.323874	0.0205938	-0.356011	0.455626	0.120922	0	0	0.153042	-0.278744	-0.149333	1.1769	-0.175254	0	0	-0.145212	0.115655	-0.12238	-0.0485279	-0.344328	0.459506	0.687388	1.26591	0	0	-0.10523	-0.338719	0.406107	0.755013	0.985294	0	0
0.05	-1.15699	1.52028	-0.331864	0.761271	1.99645	0.915657	0.295717	0.0270804	-0.350669	0.443864	0.126513	0	0	0.15662	-0.284582	-0.157721	1.17817	-0.211633	0	0	-0.153848	0.111384	-0.111878	-0.0485489	-0.344672	0.450413	0.696765	1.28338	0	0	-0.110409	-0.336351	0.412319	0.752736	0.997165	0	0
0.06	-1.0339	1.52201	-0.457244	0.759443	1.98693	0.917747	0.273911	0.0282501	-0.34905	0.434363	0.131941	0	0	0.179989	-0.281376	-0.149381	1.21039	-0.182727	0	0	-0.158794	0.105561	-0.106548	-0.0464562	-0.344856	0.442566	0.703926	1.28593	0	0	-0.114347	-0.333561	0.41753	0.748792	1.00263	0	0
0.07	-0.90514	1.52412	-0.588996	0.757572	1.97766	0.919822	0.253326	0.0282101	-0.347845	0.424891	0.136822	0	0	0.202345	-0.276498	-0.142324	1.23531	-0.159951	0	0	-0.163533	0.0984302	-0.100741	-0.0438923	-0.344638	0.43435	0.709107	1.28278	0	0	-0.118256	-0.331105	0.42165	0.745928	1.00638	0	0
0.08	-0.757477	1.52622	-0.740339	0.755769	1.96859	0.921926	0.233197	0.0269231	-0.34607	0.415102	0.141153	0	0	0.22362	-0.270115	-0.137888	1.25381	-0.141722	0	0	-0.16842	0.0902966	-0.0943371	-0.0415863	-0.34385	0.422236	0.713782	1.27216	0	0	-0.121828	-0.328531	0.424914	0.744021	1.01007	0	0
0.09	-0.753988	1.52328	-0.760853	0.753364	1.96089	0.924152	0.218436	0.0375954	-0.325708	0.404419	0.136874	0	0	0.244192	-0.274734	-0.145837	1.26936	-0.12383	0	0	-0.176083	0.091231	-0.0730658	-0.0370405	-0.349578	0.412576	0.725917	1.25165	0	0	-0.120005	-0.320364	0.428396	0.738272	1.01559	0	0
0.1	-0.450833	1.53414	-1.05429	0.753024	1.95126	0.925431	0.202578	0.0174026	-0.346339	0.39988	0.150192	0	0	0.280662	-0.245532	-0.1267	1.30454	-0.0413655	0	0	-0.171848	0.0723638	-0.0823968	-0.0370015	-0.345673	0.405473	0.730179	1.24524	0	0	-0.128078	-0.321464	0.430737	0.739673	1.0185	0	0
0.11	-0.287283	1.53204	-1.22514	0.750717	1.94203	0.927529	0.180413	0.0181855	-0.342457	0.38652	0.152494	0	0	0.287301	-0.244898	-0.136299	1.27761	-0.0994133	0	0	-0.176341	0.0644056	-0.0727875	-0.0351843	-0.344724	0.39678	0.736902	1.24782	0	0	-0.132978	-0.320216	0.435904	0.739739	1.01757	0	0
0.12	-0.116552	1.53153	-1.40101	0.749157	1.93318	0.929349	0.161537	0.0154547	-0.340013	0.374706	0.155399	0	0	0.305344	-0.235071	-0.13766	1.27428	-0.0890487	0	0	-0.178678	0.0560479	-0.0654939	-0.0335791	-0.345016	0.388652	0.745648	1.24992	0	0	-0.136758	-0.317868	0.440424	0.738837	1.01584	0	0
0.13	0.0466691	1.53079	-1.56928	0.747725	1.92433	0.931001	0.143619	0.0122685	-0.338077	0.36288	0.158446	0	0	0.323069	-0.224809	-0.140365	1.26626	-0.0770217	0	0	-0.179763	0.0478243	-0.0585996	-0.0323414	-0.346084	0.380855	0.755359	1.25001	0	0	-0.140836	-0.314923	0.441034	0.739869	1.01095	0	0
0.14	0.197038	1.52894	-1.72618	0.746104	1.91559	0.932536	0.126019	0.00958231	-0.333934	0.350956	0.161172	0	0	0.338856	-0.216744	-0.148035	1.25366	-0.063077	0	0	-0.181228	0.0393598	-0.050576	-0.0308136	-0.3471	0.372964	0.765598	1.24742	0	0	-0.145066	-0.312566	0.442168	0.740211	1.00569	0	0
0.15	0.326934	1.52606	-1.86337	0.744401	1.90702	0.933946	0.10851	0.00735886	-0.327501	0.338716	0.163705	0	0	0.353095	-0.209054	-0.157478	1.2369	-0.0473077	0	0	-0.183102	0.0307724	-0.0416291	-0.0291333	-0.348078	0.366735	0.776384	1.24562	0	0	-0.148734	-0.310763	0.443476	0.741723	1.00007	0	0
0.16	0.43262	1.52236	-1.9743	0.742883	1.89827	0.93528	0.0895557	0.00526115	-0.322953	0.324884	0.165958	0	0	0.365949	-0.200758	-0.166151	1.21595	-0.031325	0	0	-0.184729	0.0226245	-0.0349047	-0.0277241	-0.349014	0.361419	0.78726	1.2444	0	0	-0.153059	-0.309323	0.442425	0.745973	0.990092	0	0
0.17	0.522891	1.51791	-2.06867	0.741508	1.8895	0.936542	0.0699497	0.00263866	-0.319262	0.310729	0.168436	0	0	0.377168	-0.191682	-0.175181	1.19038	-0.0167774	0	0	-0.186639	0.0144566	-0.0298678	-0.0259832	-0.349826	0.356054	0.797728	1.24253	0	0	-0.15767	-0.307908	0.437938	0.752632	0.977806	0	0
0.18	0.621954	1.51188	-2.17132	0.740207	1.88109	0.937876	0.0507339	-0.00226646	-0.314787	0.297248	0.17093	0	0	0.385537	-0.175885	-0.17978	1.15665	-0.00593763	0	0	-0.189725	0.00421985	-0.025564	-0.0231835	-0.349569	0.349861	0.80672	1.23989	0	0	-0.160509	-0.306833	0.432958	0.758175	0.966115	0	0
0.19	0.646509	1.5066	-2.20061	0.738881	1.87231	0.938896	0.0288353	-0.00302741	-0.309347	0.281617	0.172849	0	0	0.392381	-0.172859	-0.198276	1.12379	0.0017465	0	0	-0.193259	-0.00203458	-0.0198718	-0.0212866	-0.351385	0.347089	0.818054	1.23884	0	0	-0.16399	-0.305407	0.42959	0.763484	0.953332	0	0
0.2	0.671695	1.50011	-2.23048	0.737641	1.86358	0.939907	0.00605907	-0.00513126	-0.304209	0.265766	0.174405	0	0	0.39591	-0.166492	-0.216244	1.08474	0.0081526	0	0	-0.197845	-0.00926625	-0.0145157	-0.018869	-0.353374	0.346633	0.829108	1.24078	0	0	-0.166337	-0.304841	0.432135	0.764752	0.946468	0	0
0.21	0.680413	1.4937	-2.24408	0.73637	1.85482	0.940751	-0.0180138	-0.00608121	-0.297872	0.248096	0.175133	0	0	0.397206	-0.16211	-0.237777	1.04218	0.0147139	0	0	-0.202939	-0.0157525	-0.00899128	-0.0166975	-0.35582	0.346958	0.841171	1.23764	0	0	-0.168126	-0.304739	0.436588	0.764016	0.951674	0	0
0.22	0.694077	1.48989	-2.26191	0.735219	1.84615	0.941166	-0.03841	-0.00643214	-0.294405	0.232771	0.177042	0	0	0.400319	-0.158188	-0.258416	0.997282	0.0226175	0	0	-0.205473	-0.0208648	-0.00417898	-0.0141514	-0.357211	0.344807	0.85047	1.24454	0	0	-0.169403	-0.304631	0.442171	0.762761	0.950691	0	0
0.23	0.700095	1.48485	-2.27246	0.734148	1.8375	0.941577	-0.0607219	-0.0072606	-0.289478	0.216104	0.178245	0	0	0.399175	-0.152923	-0.280482	0.946713	0.0296872	0	0	-0.209721	-0.0262761	0.000839066	-0.0117433	-0.359202	0.343054	0.860988	1.25224	0	0	-0.169775	-0.304039	0.443694	0.763817	0.948151	0	0
0.24	0.719935	1.48438	-2.29401	0.733458	1.8292	0.941298	-0.076834	-0.00658766	-0.288153	0.202503	0.180816	0	0	0.403669	-0.148109	-0.299618	0.895096	0.0361451	0	0	-0.210064	-0.0288334	0.00289667	-0.00816131	-0.361235	0.342721	0.869938	1.25727	0	0	-0.170101	-0.302815	0.441808	0.766337	0.943683	0	0
0.25	0.738217	1.48455	-2.31337	0.7329	1.82096	0.940752	-0.0920518	-0.00556869	-0.287339	0.189866	0.184148	0	0	0.407239	-0.142126	-0.31704	0.839571	0.0414077	0	0	-0.210354	-0.0305262	0.00383296	-0.00407897	-0.363468	0.343311	0.878967	1.26138	0	0	-0.170218	-0.302005	0.442446	0.767182	0.940717	0	0
0.26	0.754263	1.48397	-2.33094	0.732411	1.81261	0.940118	-0.107541	-0.00545883	-0.286348	0.178508	0.188422	0	0	0.407787	-0.13446	-0.334313	0.779573	0.045902	0	0	-0.211076	-0.0326703	0.00548167	-0.000689653	-0.365539	0.343284	0.887821	1.2659	0	0	-0.169436	-0.301172	0.442869	0.768258	0.93734	0	0
0.27	0.772122	1.48237	-2.35152	0.731874	1.80406	0.939408	-0.123182	-0.0065878	-0.284139	0.168412	0.193313	0	0	0.404929	-0.125044	-0.35284	0.714892	0.0499279	0	0	-0.21208	-0.0358622	0.00784409	0.00256356	-0.367089	0.343337	0.895523	1.27011	0	0	-0.168518	-0.300565	0.446113	0.76652	0.936788	0	0
0.28	0.800763	1.48195	-2.38353	0.731354	1.79545	0.938375	-0.136057	-0.00789324	-0.280628	0.160477	0.198944	0	0	0.402196	-0.11506	-0.372236	0.647403	0.0538028	0	0	-0.211252	-0.0389449	0.0108242	0.00563811	-0.368727	0.344417	0.902486	1.27386	0	0	-0.167616	-0.299459	0.445069	0.767065	0.93439	0	0
0.29	0.840121	1.48236	-2.42627	0.730938	1.78691	0.93706	-0.146318	-0.0096333	-0.276927	0.154802	0.205747	0	0	0.399728	-0.103983	-0.391741	0.577234	0.0570896	0	0	-0.209216	-0.041898	0.0137486	0.00882876	-0.369966	0.345171	0.908154	1.27844	0	0	-0.166441	-0.298284	0.444793	0.766257	0.93273	0	0
